# xmcd CD database file
#
# Track frame offsets:
#	150
#	14387
#	26362
#	39125
#	52247
#	67110
#	81930
#	96440
#	110372
#	123885
#	138747
#	151830
#	164442
#	177350
#	191077
#	204580
#	218830
#	232890
#	247985
#	260992
#
# Disc length: 3684 seconds
#
# Revision: 0
# Processed by: cddbd v1.5.2PL0 Copyright (c) Steve Scherf et al.
# Submitted via: CDex 1.99.1
#
DISCID=1d0e6214
DTITLE="Ma" Rainey - "Ma" Rainey The Paramounts Chronologically 1923 - 1924 Vol. 1
DYEAR=1900
DGENRE=Blues
TTITLE0=Bad Luck Blues
TTITLE1=Bo-Weavil Blues 1
TTITLE2=Bo-Weavil Blues 2
TTITLE3=Barrel House Blues
TTITLE4=Those All Night Long Blues 1
TTITLE5=Those All Night Long Blues 2
TTITLE6=Moonshine Bkues
TTITLE7=Last Minute Blues
TTITLE8=Southern Blues
TTITLE9=Walking Blues
TTITLE10=Lost Wandering Blues
TTITLE11=Dream Blues
TTITLE12=Honey, Where You Been So Long?
TTITLE13=Ya Do Do 1
TTITLE14=Ya Do Do 2
TTITLE15=Those Dogs Of Mine
TTITLE16=Lucky Rock Blues
TTITLE17=South Bound Blues
TTITLE18=Lawd, Send Me A Man Blues
TTITLE19=Ma Rainey's Mystery Record
EXTD=
EXTT0=
EXTT1=
EXTT2=
EXTT3=
EXTT4=
EXTT5=
EXTT6=
EXTT7=
EXTT8=
EXTT9=
EXTT10=
EXTT11=
EXTT12=
EXTT13=
EXTT14=
EXTT15=
EXTT16=
EXTT17=
EXTT18=
EXTT19=
PLAYORDER=
